<svg height='300px' width='300px'  fill="#000000" xmlns="http://www.w3.org/2000/svg" xmlns:xlink="http://www.w3.org/1999/xlink" version="1.1" x="0px" y="0px" viewBox="0 0 100 100" enable-background="new 0 0 100 100" xml:space="preserve"><g><path d="M21.937,57.131c-1.864,0-3.381,1.517-3.381,3.381c0,1.865,1.517,3.382,3.381,3.382c1.865,0,3.382-1.517,3.382-3.382   C25.318,58.647,23.801,57.131,21.937,57.131z"></path><path d="M74.404,57.192c-1.865,0-3.382,1.517-3.382,3.382s1.517,3.382,3.382,3.382c1.864,0,3.381-1.517,3.381-3.382   S76.269,57.192,74.404,57.192z"></path><path d="M94.244,57.113h-3.264c-0.705-2.051-1.603-4.03-2.673-5.91c0.112-0.119,0.205-0.255,0.248-0.417   c0.07-0.26,0.035-0.531-0.099-0.765c-0.107-0.186-0.274-0.335-0.471-0.42c-0.261-0.113-0.537-0.194-0.816-0.257   c-0.886-1.354-1.872-2.641-2.937-3.861c-0.007-0.012-0.002-0.027-0.011-0.039c-0.012-0.015-0.032-0.014-0.046-0.025   c-0.632-0.72-1.29-1.416-1.98-2.082c-0.014-0.018-0.027-0.033-0.046-0.046c-0.107-0.103-0.208-0.214-0.316-0.316   c0,0-0.001,0-0.001,0c-0.036-0.035-0.085-0.045-0.134-0.051c-0.016-0.002-0.029-0.016-0.045-0.015   c-0.001,0-0.002-0.001-0.003-0.001c-0.044,0.002-0.085-0.006-0.128-0.005c-2.23-2.056-4.719-3.813-7.403-5.226   c-0.013-0.04-0.034-0.075-0.046-0.115c0-0.001-0.001-0.001-0.001-0.002c-0.008-0.024-0.033-0.037-0.048-0.058   c-0.023-0.032-0.04-0.07-0.075-0.088c-0.001,0-0.001-0.001-0.001-0.001c-0.132-0.068-0.268-0.127-0.4-0.193   c-0.015-0.011-0.03-0.016-0.048-0.023c-2.079-1.034-4.261-1.87-6.503-2.472c-0.001,0-0.001,0-0.002,0s-0.001-0.001-0.002-0.001   c-8.941-2.229-18.361-2.11-27.243,0.341c0,0,0,0,0,0c-0.733,0.2-1.377,0.652-1.814,1.273c-0.002,0.003,0,0.007-0.002,0.011   c-0.002,0.003-0.006,0.003-0.008,0.006l-3.737,6.291c-0.002,0.003,0,0.007-0.002,0.01c-0.002,0.003-0.006,0.003-0.008,0.007   c-0.283,0.573-0.894,0.917-1.518,0.914c-8.231-0.594-16.405,2.286-22.441,7.907c-0.006,0.005-0.004,0.014-0.009,0.02   c-0.005,0.005-0.014,0.004-0.018,0.01c-0.384,0.497-0.732,1.018-1.063,1.55c-1.027,0.419-1.589,1.503-1.341,2.583   c-0.049,0.115-0.104,0.227-0.151,0.342c-0.001,0.002,0.001,0.004,0,0.006C7.638,55.999,7.636,56,7.635,56.002   c-0.128,0.369-0.251,0.74-0.372,1.111H5.756c-0.555,0-1.006,0.451-1.006,1.006v0.729c0,0.555,0.451,1.006,1.006,1.006h0.767v0.783   c0,0.138,0.112,0.25,0.25,0.25h3.672c0.002,0,0.004,0,0.006,0h0.572c1.482,0,2.783-1,3.164-2.433   c0.937-3.525,4.111-5.961,7.748-5.961c0.041,0,0.083,0,0.124,0.001c4.421,0.067,7.964,3.718,7.897,8.139   c0,0.001,0.001,0.001,0.001,0.002c0,0.001-0.001,0.001-0.001,0.002c0,0.034,0.024,0.058,0.036,0.087   c0.012,0.03,0.014,0.065,0.036,0.088c0.019,0.02,0.05,0.02,0.076,0.033c0.032,0.016,0.06,0.042,0.098,0.042   c0.001,0,0.003,0,0.004,0h35.931c0.001,0,0.001,0,0.002,0c0.035,0,0.059-0.025,0.089-0.038c0.029-0.013,0.064-0.014,0.086-0.036   c0.022-0.023,0.024-0.058,0.036-0.088c0.013-0.03,0.037-0.054,0.037-0.088c0,0,0-0.001,0-0.001s0-0.001,0-0.001   c-0.032-4.194,3.22-7.732,7.402-8.056c4.393-0.331,8.271,2.971,8.611,7.379c0.04,0.521,0.479,0.929,1.002,0.929h7.37   c0.555,0,1.006-0.451,1.006-1.006c0-0.009-0.003-0.018-0.003-0.027h2.47c0.555,0,1.006-0.451,1.006-1.006v-0.729   C95.25,57.564,94.799,57.113,94.244,57.113z M56.388,36.551c0.001-0.006,0.007-0.01,0.007-0.016   c0.017-0.277,0.259-0.48,0.535-0.474c2.758,0.17,5.519,0.583,8.209,1.224c0.002,0.001,0.003,0.004,0.005,0.005   c2.062,0.923,4.015,2.092,5.803,3.475c0.499,0.433,0.81,1.058,0.854,1.717c0.09,1.368-0.95,2.555-2.319,2.646l-1.445,0.04H56.9   c-0.279,0-0.506-0.227-0.506-0.506v-8.097C56.395,36.561,56.389,36.557,56.388,36.551z M43.984,37.027l-1.733,8.143h-3.29   c-0.088,0-0.175-0.023-0.251-0.067c-0.117-0.067-0.201-0.176-0.237-0.307c-0.035-0.13-0.018-0.267,0.049-0.383l3.758-6.56   c0.377-0.382,0.852-0.648,1.377-0.763C43.766,37.066,43.876,37.05,43.984,37.027z M54.58,44.664c0,0.279-0.227,0.506-0.506,0.506   H42.992l1.764-8.29c3.037-0.592,6.131-0.909,9.221-0.909c0.033,0,0.066,0,0.099,0c0.278,0,0.505,0.228,0.505,0.506V44.664z    M80.724,42.871c-2.769-0.219-5.181-1.92-6.307-4.452C76.68,39.662,78.795,41.155,80.724,42.871z"></path><path d="M21.937,54.22c-3.469,0-6.292,2.822-6.292,6.292s2.823,6.292,6.292,6.292c3.47,0,6.292-2.822,6.292-6.292   S25.406,54.22,21.937,54.22z M21.937,64.394c-2.14,0-3.881-1.741-3.881-3.882c0-2.14,1.741-3.881,3.881-3.881   c2.141,0,3.882,1.741,3.882,3.881C25.818,62.652,24.077,64.394,21.937,64.394z"></path><path d="M74.404,54.282c-3.47,0-6.293,2.822-6.293,6.292s2.823,6.292,6.293,6.292s6.292-2.822,6.292-6.292   S77.874,54.282,74.404,54.282z M74.404,64.456c-2.141,0-3.882-1.741-3.882-3.882s1.741-3.882,3.882-3.882   c2.14,0,3.881,1.741,3.881,3.882S76.544,64.456,74.404,64.456z"></path></g></svg>